<svg width="175" height="29" viewBox="0 0 175 29" fill="none" xmlns="http://www.w3.org/2000/svg">
<path d="M24.6299 27.2441C24.0965 27.2441 23.7339 26.9881 23.5419 26.4761C23.3712 25.9641 23.2859 25.4521 23.2859 24.9401C23.2859 23.1055 24.2672 20.4708 26.2299 17.0361C27.4885 14.8815 29.4299 11.9801 32.0539 8.33212C29.2165 8.58812 25.5472 10.8281 21.0459 15.0521C17.4619 18.4441 14.9125 21.3561 13.3979 23.7881C12.8859 24.5775 12.6299 25.1428 12.6299 25.4841C12.6299 25.6335 12.6725 25.7295 12.7579 25.7721C12.8645 25.8148 12.9179 25.8361 12.9179 25.8361C12.9179 25.8788 12.7152 26.0388 12.3099 26.3161C12.0112 26.4868 11.6379 26.5721 11.1899 26.5721C10.2939 26.5721 9.90987 26.3695 10.0379 25.9641C10.3365 25.0255 11.3285 23.2975 13.0139 20.7801C15.2112 17.5161 16.6405 15.2868 17.3019 14.0921C18.7525 11.4895 19.4779 9.43079 19.4779 7.91612C19.4779 6.84945 19.2112 6.11345 18.6779 5.70812C18.1659 5.30279 17.4405 5.10012 16.5019 5.10012C13.9632 5.10012 11.2645 6.26279 8.40587 8.58812C7.23254 9.54812 6.14454 10.6148 5.14187 11.7881C4.13921 12.9401 3.32854 14.1348 2.70987 15.3721C2.09121 16.6095 1.78187 17.8255 1.78187 19.0201C1.78187 21.0681 2.73121 22.1135 4.62987 22.1561C7.27521 22.2201 9.26987 21.3348 10.6139 19.5001C11.1259 18.7961 11.3819 18.1348 11.3819 17.5161C11.3819 17.1535 11.2645 16.9081 11.0299 16.7801C11.0085 16.7588 10.9979 16.7268 10.9979 16.6841C10.9979 16.5988 11.0619 16.5561 11.1899 16.5561C11.7445 16.5561 12.0219 16.9188 12.0219 17.6441C12.0219 18.0921 11.8405 18.6575 11.4779 19.3401C10.8805 20.3641 9.99521 21.1748 8.82187 21.7721C7.64854 22.3695 6.43254 22.6681 5.17387 22.6681C3.78721 22.6681 2.67787 22.2521 1.84587 21.4201C1.01387 20.5881 0.597875 19.4681 0.597875 18.0601C0.597875 14.7321 2.88054 11.2335 7.44587 7.56412C8.21387 6.94545 9.15254 6.39078 10.2619 5.90012C11.3712 5.40945 12.5125 5.02545 13.6859 4.74812C14.8805 4.47079 15.9792 4.33212 16.9819 4.33212C18.2405 4.33212 19.2325 4.57745 19.9579 5.06812C20.7045 5.53745 21.0779 6.35878 21.0779 7.53212C21.0779 9.04678 20.4592 11.0521 19.2219 13.5481C18.9445 14.1028 18.5925 14.7428 18.1659 15.4681C17.7392 16.1935 17.2379 16.9935 16.6619 17.8681C17.3232 17.0361 18.4005 15.9801 19.8939 14.7001C22.5819 12.4388 25.0672 10.5828 27.3499 9.13212C29.6325 7.66012 31.7125 6.58278 33.5899 5.90012C33.7819 5.81478 33.9952 5.77212 34.2299 5.77212C35.0405 5.77212 35.5525 6.23078 35.7659 7.14812C35.8725 7.51078 35.3605 8.26812 34.2299 9.42012C31.5632 12.1508 29.2592 15.2015 27.3179 18.5721C25.5472 21.6868 24.6619 23.9481 24.6619 25.3561C24.6619 25.9535 24.8645 26.2521 25.2699 26.2521C25.5259 26.2521 26.1659 26.0281 27.1899 25.5801C28.0859 25.1748 28.6725 24.9401 28.9499 24.8761C29.0565 24.9188 29.1099 24.9721 29.1099 25.0361C29.1099 25.3561 28.5445 25.8041 27.4139 26.3801C26.3045 26.9561 25.3765 27.2441 24.6299 27.2441ZM32.2716 24.3321C31.7596 24.3321 31.2476 24.1508 30.7356 23.7881C30.2236 23.4255 29.9356 22.9988 29.8716 22.5081C29.6583 20.8655 30.693 18.9135 32.9756 16.6521C35.237 14.3908 37.2743 13.2601 39.0876 13.2601C39.5783 13.2601 39.9623 13.3775 40.2396 13.6121C40.389 13.7615 40.4956 13.9641 40.5596 14.2201C40.645 14.4761 40.709 14.6041 40.7516 14.6041C40.837 14.6041 40.9116 14.5935 40.9756 14.5721C41.0396 14.5295 41.1143 14.5081 41.1996 14.5081C41.4556 14.5081 41.6796 14.6041 41.8716 14.7961C42.0636 14.9881 42.1703 15.1588 42.1916 15.3081C42.213 15.3508 41.5303 16.4068 40.1436 18.4761C38.757 20.5028 38.1276 21.8788 38.2556 22.6041C38.3623 23.0948 38.597 23.3401 38.9596 23.3401C40.069 23.3401 42.0956 21.5055 45.0396 17.8361C45.1036 17.7508 45.1676 17.7081 45.2316 17.7081C45.3383 17.7081 45.3916 17.7828 45.3916 17.9321C45.3916 18.1028 45.2956 18.3161 45.1036 18.5721C42.3943 22.2201 40.3143 24.0441 38.8636 24.0441C38.6716 24.0441 38.4903 24.0121 38.3196 23.9481C37.381 23.5855 36.9116 22.8815 36.9116 21.8361C36.9116 21.4735 36.9543 21.1108 37.0396 20.7481L35.0556 22.6681C34.4583 23.2655 33.9143 23.6921 33.4236 23.9481C32.9543 24.2041 32.5703 24.3321 32.2716 24.3321ZM31.9836 23.6281C33.221 23.6281 34.9063 22.2735 37.0396 19.5641L40.4316 14.8921C40.261 14.5935 39.9836 14.4441 39.5996 14.4441C38.2983 14.4441 36.5383 15.4895 34.3196 17.5801C32.0156 19.7135 30.981 21.4735 31.2156 22.8601C31.3223 23.3721 31.5783 23.6281 31.9836 23.6281ZM49.8751 24.5561C49.1711 24.5561 48.5418 24.3535 47.9871 23.9481C47.4538 23.5428 46.9845 23.0308 46.5791 22.4121C46.1951 21.7935 45.8645 21.1748 45.5871 20.5561C45.4378 20.7481 45.2778 20.9935 45.1071 21.2921C44.9578 21.5908 44.7765 21.9428 44.5631 22.3481L43.5711 24.3321C42.8031 24.0335 42.4191 23.6281 42.4191 23.1161C42.4191 22.1988 43.8165 19.6495 46.6111 15.4681C49.3205 11.4148 51.1871 9.02545 52.2111 8.30012C52.3178 8.23612 52.4885 8.20412 52.7231 8.20412C53.3845 8.20412 53.7151 8.37479 53.7151 8.71612C53.7151 8.78012 53.5658 9.01479 53.2671 9.42012C52.9685 9.80412 52.5951 10.2735 52.1471 10.8281C51.6991 11.3828 51.2405 11.9481 50.7711 12.5241C50.3231 13.0788 49.9285 13.5695 49.5871 13.9961C49.2458 14.4015 49.0538 14.6575 49.0111 14.7641C50.9525 13.7615 52.4991 13.2601 53.6511 13.2601C54.0991 13.2601 54.5045 13.3881 54.8671 13.6441C55.2511 13.9001 55.5498 14.2095 55.7631 14.5721C55.9765 14.9348 56.0618 15.2868 56.0191 15.6281C55.8485 16.8441 54.9951 17.8468 53.4591 18.6361C52.2218 19.2975 51.0911 19.6281 50.0671 19.6281C48.9578 19.6281 48.1898 19.4895 47.7631 19.2121C47.6351 19.1908 47.5285 19.2228 47.4431 19.3081C47.3791 19.3721 47.3685 19.4788 47.4111 19.6281C48.0085 22.2735 49.0005 23.5961 50.3871 23.5961C51.0698 23.5961 51.9765 23.2015 53.1071 22.4121C54.2591 21.6228 55.4751 20.4708 56.7551 18.9561C56.9045 18.8068 57.0431 18.7321 57.1711 18.7321C57.2778 18.7321 57.3311 18.7961 57.3311 18.9241C57.3311 19.0308 57.2565 19.1908 57.1071 19.4041C56.4885 20.1508 55.7631 20.9295 54.9311 21.7401C54.1205 22.5295 53.2778 23.2015 52.4031 23.7561C51.5285 24.2895 50.6858 24.5561 49.8751 24.5561ZM48.0191 18.7961C48.9791 18.7961 50.2378 18.4015 51.7951 17.6121C53.5871 16.7161 54.4831 15.7668 54.4831 14.7641C54.4831 14.5935 54.3871 14.4228 54.1951 14.2521C54.0031 14.0815 53.8005 13.9961 53.5871 13.9961C52.4351 13.9961 51.0911 14.4441 49.5551 15.3401C47.8698 16.3641 46.8458 17.4841 46.4831 18.7001C46.7178 18.7001 47.0165 18.7215 47.3791 18.7641C47.7631 18.7855 47.9765 18.7961 48.0191 18.7961ZM57.4129 24.5241C56.4529 24.5241 55.9729 23.9161 55.9729 22.7001C55.9729 22.2308 56.1115 21.6761 56.3889 21.0361C56.6875 20.3748 57.1035 19.6815 57.6369 18.9561C57.6369 18.9561 57.4449 19.1375 57.0609 19.5001C56.6769 19.8628 56.2395 20.3215 55.7489 20.8761C55.6635 20.9615 55.5569 21.0041 55.4289 21.0041C55.3435 21.0041 55.3009 20.9508 55.3009 20.8441C55.3009 20.7375 55.3969 20.5561 55.5889 20.3001L60.0049 15.1161C60.5595 14.4761 61.1675 14.1561 61.8289 14.1561C62.3195 14.1561 62.5649 14.3481 62.5649 14.7321C62.5649 14.8815 62.5009 15.0201 62.3729 15.1481C61.9675 15.5321 61.4662 16.0761 60.8689 16.7801C60.2929 17.4841 59.7275 18.2415 59.1729 19.0521C58.6182 19.8628 58.1489 20.6415 57.7649 21.3881C57.4022 22.1135 57.2209 22.7001 57.2209 23.1481C57.2209 23.5321 57.3489 23.7241 57.6049 23.7241C57.7542 23.7241 57.9889 23.6708 58.3089 23.5641C58.6289 23.4361 59.0555 23.1908 59.5889 22.8281C60.1222 22.4441 60.7622 21.8575 61.5089 21.0681C61.6369 20.9401 61.9782 20.5561 62.5329 19.9161C63.0875 19.2761 63.8342 18.3588 64.7729 17.1641C66.4369 15.0948 67.5249 14.0601 68.0369 14.0601C68.7409 14.0601 69.1249 14.3481 69.1889 14.9241C69.2315 15.1161 68.7835 15.7455 67.8449 16.8121C66.6289 18.2841 65.7969 19.3401 65.3489 19.9801C64.5169 21.1961 64.1009 22.1455 64.1009 22.8281C64.1009 23.2975 64.2609 23.5321 64.5809 23.5321C64.9009 23.5321 65.3062 23.3828 65.7969 23.0841C66.3089 22.7641 66.8422 22.3695 67.3969 21.9001C67.9515 21.4095 68.4849 20.9081 68.9969 20.3961C69.5302 19.8628 69.9889 19.3721 70.3729 18.9241C70.5009 18.7748 70.6289 18.7001 70.7569 18.7001C70.8849 18.7001 70.9489 18.7641 70.9489 18.8921C70.9489 18.9348 70.9382 18.9988 70.9169 19.0841C70.8955 19.1695 70.8315 19.2655 70.7249 19.3721C70.3835 19.7561 69.9462 20.2361 69.4129 20.8121C68.8795 21.3668 68.3035 21.9215 67.6849 22.4761C67.0662 23.0308 66.4689 23.4895 65.8929 23.8521C65.3169 24.2148 64.8262 24.3961 64.4209 24.3961C63.9302 24.3961 63.5035 24.2681 63.1409 24.0121C62.7782 23.7348 62.5969 23.3615 62.5969 22.8921C62.5969 22.4228 62.6715 21.9535 62.8209 21.4841C62.9702 20.9935 63.0875 20.5775 63.1729 20.2361C62.1702 21.4095 61.2849 22.3055 60.5169 22.9241C59.7702 23.5428 59.1409 23.9588 58.6289 24.1721C58.1169 24.4068 57.7115 24.5241 57.4129 24.5241ZM71.9346 24.2361C71.316 24.2361 70.74 24.0868 70.2066 23.7881C69.6733 23.4681 69.4066 22.9455 69.4066 22.2201C69.4066 21.2175 69.7586 20.0228 70.4626 18.6361C71.188 17.2495 72.0093 15.8095 72.9266 14.3161C75.4226 10.2628 77.1933 8.23612 78.2386 8.23612C78.452 8.23612 78.6653 8.32145 78.8786 8.49212C79.1133 8.64145 79.2413 8.81212 79.2626 9.00412L77.0226 12.0121C76.148 13.1855 75.3586 14.2735 74.6546 15.2761C73.9506 16.2575 73.3426 17.1428 72.8306 17.9321C72.5746 18.3375 72.2866 18.7961 71.9666 19.3081C71.6466 19.8201 71.3586 20.3535 71.1026 20.9081C70.868 21.4415 70.7506 21.9855 70.7506 22.5401C70.7506 22.7961 70.8253 23.0308 70.9746 23.2441C71.124 23.4361 71.3906 23.5321 71.7746 23.5321C72.4573 23.5321 73.3533 23.1695 74.4626 22.4441C75.572 21.6975 76.6706 20.6735 77.7586 19.3721C77.8653 19.2441 77.9826 19.1268 78.1106 19.0201C78.2386 18.9135 78.3453 18.8601 78.4306 18.8601C78.5373 18.8601 78.5906 18.9241 78.5906 19.0521C78.5906 19.1161 78.516 19.2441 78.3666 19.4361C78.2386 19.6068 78.132 19.7455 78.0466 19.8521L77.2786 20.7161C76.852 21.1855 76.34 21.6975 75.7426 22.2521C75.1666 22.8068 74.548 23.2761 73.8866 23.6601C73.2466 24.0441 72.596 24.2361 71.9346 24.2361ZM116.684 28.3001C115.852 28.3001 115.116 28.1508 114.476 27.8521C113.558 27.4041 112.652 26.7748 111.756 25.9641C110.86 25.1748 110.006 24.2788 109.196 23.2761C108.385 22.2735 107.66 21.2175 107.02 20.1081C106.38 18.9988 105.846 17.9215 105.42 16.8761C104.246 17.5588 103.276 17.9321 102.508 17.9961C101.91 18.7641 101.153 19.6388 100.236 20.6201C99.3183 21.6015 98.2943 22.5508 97.1636 23.4681C96.0543 24.3855 94.8596 25.1321 93.5796 25.7081C92.321 26.3055 91.041 26.6041 89.7396 26.6041C88.0756 26.6041 86.753 26.1775 85.7716 25.3241C84.8116 24.4921 84.3316 23.1695 84.3316 21.3561C84.3316 20.3535 84.577 19.3615 85.0676 18.3801C85.5583 17.3988 86.2196 16.5135 87.0516 15.7241C87.8836 14.9348 88.7903 14.3375 89.7716 13.9321C90.9876 13.3988 92.257 13.1321 93.5796 13.1321C94.3263 13.1321 94.9236 13.3348 95.3716 13.7401C95.8196 14.1241 96.0436 14.6255 96.0436 15.2441C96.0436 15.5215 96.001 15.7028 95.9156 15.7881C95.8943 15.8095 95.8623 15.8201 95.8196 15.8201C95.7556 15.8201 95.6703 15.7348 95.5636 15.5641C95.2223 14.9028 94.881 14.4655 94.5396 14.2521C94.1983 14.0388 93.7183 13.9321 93.0996 13.9321C92.161 13.9321 91.2436 14.1668 90.3476 14.6361C89.473 15.0841 88.673 15.6921 87.9476 16.4601C87.2436 17.2281 86.6783 18.0921 86.2516 19.0521C85.825 19.9908 85.6116 20.9401 85.6116 21.9001C85.6116 24.2041 86.913 25.5055 89.5156 25.8041C90.497 25.8895 91.7876 25.4735 93.3876 24.5561C95.777 23.1908 98.3263 20.8441 101.036 17.5161C100.545 17.0681 100.3 16.4281 100.3 15.5961C100.3 14.6788 100.609 13.8468 101.228 13.1001C101.91 12.2895 102.817 11.8841 103.948 11.8841C104.268 11.8841 104.566 11.9161 104.844 11.9801C105.42 10.9988 105.974 10.0068 106.508 9.00412C107.041 8.00145 107.553 6.98812 108.044 5.96412C108.982 4.02279 109.452 2.89212 109.452 2.57212C109.452 2.52945 109.441 2.50812 109.42 2.50812C109.356 2.46545 109.1 2.55079 108.652 2.76412C108.204 2.95612 107.681 3.20145 107.084 3.50012C106.486 3.77745 105.932 4.05479 105.42 4.33212C104.908 4.60945 104.556 4.81212 104.364 4.94012C103.638 5.40945 102.913 6.00678 102.188 6.73212C101.249 7.67078 100.78 8.39612 100.78 8.90812C100.78 9.14279 100.886 9.33479 101.1 9.48412C101.548 9.80412 102.209 9.96412 103.084 9.96412C103.19 10.0068 103.244 10.0495 103.244 10.0921C103.244 10.1988 102.902 10.3055 102.22 10.4121C101.537 10.5188 101.004 10.5508 100.62 10.5081C100.086 10.3801 99.8196 10.0708 99.8196 9.58012C99.8196 8.83345 100.278 7.93745 101.196 6.89212C102.113 5.84678 103.116 5.02545 104.204 4.42812C107.382 2.72145 109.398 1.86812 110.252 1.86812C110.465 1.86812 110.646 1.91079 110.796 1.99612C110.881 2.06012 110.924 2.17745 110.924 2.34812C110.924 3.64945 109.132 7.37212 105.548 13.5161C105.612 13.7721 105.697 14.0708 105.804 14.4121C105.932 14.7321 106.081 15.1055 106.252 15.5321L115.788 8.26812C117.388 7.05212 118.849 5.95345 120.172 4.97212C121.494 3.99078 122.753 3.15878 123.948 2.47612C125.164 1.79345 126.38 1.27078 127.596 0.908117C128.833 0.545451 130.166 0.364119 131.596 0.364119C132.385 0.364119 133.11 0.492118 133.772 0.748117C134.177 0.897451 134.38 1.19612 134.38 1.64412C134.38 2.00678 134.273 2.18812 134.06 2.18812C133.953 2.18812 133.846 2.12412 133.74 1.99612C133.548 1.78279 133.142 1.67612 132.524 1.67612C132.182 1.67612 131.734 1.71878 131.18 1.80412C130.625 1.88945 129.953 2.01745 129.164 2.18812C127.948 2.46545 126.657 2.90278 125.292 3.50012C123.948 4.09745 122.529 4.85478 121.036 5.77212C119.158 6.94545 116.598 8.76945 113.356 11.2441C111.713 12.5028 110.316 13.5481 109.164 14.3801C108.033 15.1908 107.158 15.7988 106.54 16.2041C107.009 17.1855 107.574 18.1988 108.236 19.2441C108.918 20.2895 109.654 21.3028 110.444 22.2841C111.233 23.2441 112.065 24.0975 112.94 24.8441C113.814 25.6121 114.678 26.1881 115.532 26.5721C116.364 26.9561 117.121 27.1481 117.804 27.1481C118.828 27.1481 119.34 26.7535 119.34 25.9641C119.34 25.9215 119.34 25.8681 119.34 25.8041C119.34 25.7401 119.329 25.6868 119.308 25.6441C119.308 25.6015 119.297 25.5588 119.276 25.5161C119.276 25.4948 119.276 25.4735 119.276 25.4521C119.276 25.2388 119.329 25.0468 119.436 24.8761C119.542 24.7268 119.66 24.6521 119.788 24.6521C120.065 24.6521 120.246 24.9828 120.332 25.6441C120.353 25.6868 120.364 25.7401 120.364 25.8041C120.364 25.8681 120.364 25.9215 120.364 25.9641C120.364 26.4761 120.182 26.9028 119.82 27.2441C119.457 27.6068 118.998 27.8735 118.444 28.0441C117.889 28.2148 117.302 28.3001 116.684 28.3001ZM102.06 16.2041L102.284 15.8841C102.454 15.6281 102.678 15.2975 102.956 14.8921C103.254 14.4868 103.585 14.0068 103.948 13.4521C103.692 13.3455 103.468 13.2921 103.276 13.2921C102.828 13.2921 102.454 13.4841 102.156 13.8681C101.857 14.2521 101.708 14.6788 101.708 15.1481C101.708 15.5535 101.825 15.9055 102.06 16.2041ZM103.468 16.7481C103.681 16.7481 103.82 16.7375 103.884 16.7161C104.161 16.6735 104.588 16.5028 105.164 16.2041C105.078 15.9481 104.993 15.7135 104.908 15.5001C104.844 15.2868 104.79 15.0948 104.748 14.9241C104.598 15.1588 104.417 15.4361 104.204 15.7561C103.99 16.0548 103.745 16.3855 103.468 16.7481ZM115.069 24.5241C114.109 24.5241 113.629 23.9161 113.629 22.7001C113.629 22.2308 113.768 21.6761 114.045 21.0361C114.344 20.3748 114.76 19.6815 115.293 18.9561C115.293 18.9561 115.101 19.1375 114.717 19.5001C114.333 19.8628 113.896 20.3215 113.405 20.8761C113.32 20.9615 113.213 21.0041 113.085 21.0041C113 21.0041 112.957 20.9508 112.957 20.8441C112.957 20.7375 113.053 20.5561 113.245 20.3001L117.661 15.1161C118.216 14.4761 118.824 14.1561 119.485 14.1561C119.976 14.1561 120.221 14.3481 120.221 14.7321C120.221 14.8815 120.157 15.0201 120.029 15.1481C119.624 15.5321 119.122 16.0761 118.525 16.7801C117.949 17.4841 117.384 18.2415 116.829 19.0521C116.274 19.8628 115.805 20.6415 115.421 21.3881C115.058 22.1135 114.877 22.7001 114.877 23.1481C114.877 23.5321 115.005 23.7241 115.261 23.7241C115.41 23.7241 115.645 23.6708 115.965 23.5641C116.285 23.4361 116.712 23.1908 117.245 22.8281C117.778 22.4441 118.418 21.8575 119.165 21.0681C119.293 20.9401 119.634 20.5561 120.189 19.9161C120.744 19.2761 121.49 18.3588 122.429 17.1641C124.093 15.0948 125.181 14.0601 125.693 14.0601C126.397 14.0601 126.781 14.3481 126.845 14.9241C126.888 15.1161 126.44 15.7455 125.501 16.8121C124.285 18.2841 123.453 19.3401 123.005 19.9801C122.173 21.1961 121.757 22.1455 121.757 22.8281C121.757 23.2975 121.917 23.5321 122.237 23.5321C122.557 23.5321 122.962 23.3828 123.453 23.0841C123.965 22.7641 124.498 22.3695 125.053 21.9001C125.608 21.4095 126.141 20.9081 126.653 20.3961C127.186 19.8628 127.645 19.3721 128.029 18.9241C128.157 18.7748 128.285 18.7001 128.413 18.7001C128.541 18.7001 128.605 18.7641 128.605 18.8921C128.605 18.9348 128.594 18.9988 128.573 19.0841C128.552 19.1695 128.488 19.2655 128.381 19.3721C128.04 19.7561 127.602 20.2361 127.069 20.8121C126.536 21.3668 125.96 21.9215 125.341 22.4761C124.722 23.0308 124.125 23.4895 123.549 23.8521C122.973 24.2148 122.482 24.3961 122.077 24.3961C121.586 24.3961 121.16 24.2681 120.797 24.0121C120.434 23.7348 120.253 23.3615 120.253 22.8921C120.253 22.4228 120.328 21.9535 120.477 21.4841C120.626 20.9935 120.744 20.5775 120.829 20.2361C119.826 21.4095 118.941 22.3055 118.173 22.9241C117.426 23.5428 116.797 23.9588 116.285 24.1721C115.773 24.4068 115.368 24.5241 115.069 24.5241ZM134.711 24.2361C134.199 24.2361 133.943 23.9481 133.943 23.3721C134.178 22.1775 134.658 20.8335 135.383 19.3401C135.724 18.6148 136.066 17.9001 136.407 17.1961C136.77 16.4921 137.122 15.7775 137.463 15.0521C136.674 15.5855 135.884 16.1828 135.095 16.8441C134.306 17.4841 133.538 18.2095 132.791 19.0201C131.916 19.9588 130.903 21.1641 129.751 22.6361C128.919 23.6815 128.439 24.2041 128.311 24.2041C128.012 24.2041 127.767 24.0655 127.575 23.7881C127.383 23.5108 127.287 23.2761 127.287 23.0841C127.287 22.8068 127.532 22.0921 128.023 20.9401C128.172 20.5775 128.322 20.2255 128.471 19.8841C128.642 19.5215 128.802 19.1695 128.951 18.8281L127.031 20.8441C126.988 20.8868 126.86 21.0148 126.647 21.2281C126.434 21.4415 126.263 21.5481 126.135 21.5481C126.028 21.5481 125.975 21.4735 125.975 21.3241C125.975 21.2815 125.996 21.2281 126.039 21.1641C126.06 21.0788 126.124 20.9828 126.231 20.8761C126.551 20.5561 126.882 20.2148 127.223 19.8521C127.564 19.4895 127.916 19.0735 128.279 18.6041C128.556 18.2415 128.951 17.7081 129.463 17.0041C129.996 16.2788 130.647 15.3721 131.415 14.2841C131.65 13.9641 131.98 13.8041 132.407 13.8041C132.834 13.8041 133.047 14.0068 133.047 14.4121C133.047 14.5615 132.503 15.5535 131.415 17.3881C130.86 18.3695 130.412 19.1695 130.071 19.7881C129.751 20.4068 129.548 20.8655 129.463 21.1641C129.932 20.6521 130.487 20.0761 131.127 19.4361C131.788 18.7961 132.546 18.0815 133.399 17.2921C136.023 14.8601 137.751 13.6441 138.583 13.6441C138.818 13.6441 139.042 13.7188 139.255 13.8681C139.49 14.0175 139.607 14.2095 139.607 14.4441C139.607 14.5508 139.191 15.3295 138.359 16.7801C137.548 18.2521 137.1 19.1268 137.015 19.4041C139.383 17.4201 140.567 16.4175 140.567 16.3961C142.572 14.8388 144.012 14.0601 144.887 14.0601C145.143 14.0601 145.378 14.1455 145.591 14.3161C145.826 14.4655 145.943 14.6468 145.943 14.8601C145.943 14.9028 145.26 15.7988 143.895 17.5481C142.487 19.3188 141.698 20.7695 141.527 21.9001C141.442 22.6681 141.836 23.0521 142.711 23.0521C143.244 23.0521 143.991 22.7108 144.951 22.0281C145.911 21.3455 146.914 20.4068 147.959 19.2121C148.087 19.0628 148.226 18.9241 148.375 18.7961C148.524 18.6468 148.652 18.5721 148.759 18.5721C148.887 18.5721 148.951 18.6255 148.951 18.7321C148.951 18.8815 148.855 19.0521 148.663 19.2441C148.108 19.9055 147.447 20.5881 146.679 21.2921C145.932 21.9961 145.186 22.5935 144.439 23.0841C143.692 23.5535 143.031 23.7881 142.455 23.7881C141.004 23.7881 140.279 23.1161 140.279 21.7721C140.279 21.3028 140.407 20.7588 140.663 20.1401C140.919 19.5001 141.175 18.9241 141.431 18.4121C142.05 17.2175 142.722 16.1615 143.447 15.2441C142.764 15.5855 142.05 16.0335 141.303 16.5881C140.578 17.1428 139.82 17.7935 139.031 18.5401C137.196 20.3321 135.938 22.1455 135.255 23.9801C135.148 24.1508 134.967 24.2361 134.711 24.2361ZM149.49 24.3321C148.978 24.3321 148.466 24.1508 147.954 23.7881C147.442 23.4255 147.154 22.9988 147.09 22.5081C146.877 20.8655 147.912 18.9135 150.194 16.6521C152.456 14.3908 154.493 13.2601 156.306 13.2601C156.797 13.2601 157.181 13.3775 157.458 13.6121C157.608 13.7615 157.714 13.9641 157.778 14.2201C157.864 14.4761 157.928 14.6041 157.97 14.6041C158.056 14.6041 158.13 14.5935 158.194 14.5721C158.258 14.5295 158.333 14.5081 158.418 14.5081C158.674 14.5081 158.898 14.6041 159.09 14.7961C159.282 14.9881 159.389 15.1588 159.41 15.3081C159.432 15.3508 158.749 16.4068 157.362 18.4761C155.976 20.5028 155.346 21.8788 155.474 22.6041C155.581 23.0948 155.816 23.3401 156.178 23.3401C157.288 23.3401 159.314 21.5055 162.258 17.8361C162.322 17.7508 162.386 17.7081 162.45 17.7081C162.557 17.7081 162.61 17.7828 162.61 17.9321C162.61 18.1028 162.514 18.3161 162.322 18.5721C159.613 22.2201 157.533 24.0441 156.082 24.0441C155.89 24.0441 155.709 24.0121 155.538 23.9481C154.6 23.5855 154.13 22.8815 154.13 21.8361C154.13 21.4735 154.173 21.1108 154.258 20.7481L152.274 22.6681C151.677 23.2655 151.133 23.6921 150.642 23.9481C150.173 24.2041 149.789 24.3321 149.49 24.3321ZM149.202 23.6281C150.44 23.6281 152.125 22.2735 154.258 19.5641L157.65 14.8921C157.48 14.5935 157.202 14.4441 156.818 14.4441C155.517 14.4441 153.757 15.4895 151.538 17.5801C149.234 19.7135 148.2 21.4735 148.434 22.8601C148.541 23.3721 148.797 23.6281 149.202 23.6281ZM167.062 24.3321C166.145 24.3321 165.515 24.0975 165.174 23.6281C164.833 23.1375 164.662 22.4868 164.662 21.6761C164.662 20.7801 164.939 19.7135 165.494 18.4761C165.707 17.9855 165.931 17.5481 166.166 17.1641C166.401 16.7588 166.646 16.3855 166.902 16.0441C166.817 16.0655 166.742 16.0761 166.678 16.0761C166.614 16.0761 166.55 16.0761 166.486 16.0761C165.974 16.0761 165.547 15.7135 165.206 14.9881L162.838 18.0601C161.579 19.7028 160.811 20.5241 160.534 20.5241C160.427 20.5241 160.374 20.4815 160.374 20.3961C160.374 20.2895 160.427 20.1508 160.534 19.9801C160.598 19.8521 160.726 19.6815 160.918 19.4681C161.729 18.5295 162.475 17.6015 163.158 16.6841C163.841 15.7668 164.406 14.8708 164.854 13.9961C165.345 12.1401 165.963 11.2121 166.71 11.2121C167.201 11.2121 167.446 11.4361 167.446 11.8841C167.446 12.2895 167.179 12.8228 166.646 13.4841C166.134 14.1455 165.878 14.4868 165.878 14.5081C165.878 14.9561 166.209 15.1801 166.87 15.1801C167.254 15.1801 167.681 15.0415 168.15 14.7641L168.982 14.2521C169.025 14.2308 169.089 14.2201 169.174 14.2201C169.43 14.2201 169.654 14.3268 169.846 14.5401C170.038 14.7535 170.102 14.9455 170.038 15.1161L167.83 17.9001C166.465 19.6495 165.782 21.0575 165.782 22.1241C165.782 23.0841 166.251 23.5641 167.19 23.5641C167.83 23.5641 168.513 23.3721 169.238 22.9881C169.985 22.6041 170.699 22.1348 171.382 21.5801C172.086 21.0041 172.673 20.4495 173.142 19.9161L173.91 19.0201C173.953 18.9775 174.006 18.9241 174.07 18.8601C174.134 18.7961 174.187 18.7641 174.23 18.7641C174.379 18.7641 174.454 18.8388 174.454 18.9881C174.454 19.0308 174.433 19.1055 174.39 19.2121C174.347 19.3188 174.273 19.4361 174.166 19.5641L173.142 20.7161C172.651 21.2708 172.043 21.8361 171.318 22.4121C170.614 22.9668 169.878 23.4255 169.11 23.7881C168.363 24.1508 167.681 24.3321 167.062 24.3321Z" fill="white"/>
</svg>
